<svg version="1" xmlns="http://www.w3.org/2000/svg" width="666.667" height="666.667" viewBox="0 0 500.000000 500.000000"><path d="M227 47.1c-9.1 1.6-20 3.6-24.2 4.3-9 1.7-18 5.5-22.3 9.6l-3 2.8-23.5.5c-25.9.6-36.7 2.2-49.6 7.5-22.2 9.1-36.8 27.3-46.3 57.8-2.7 8.6-3.7 10.3-8.5 15.4-22 23.1-33.1 63.7-32 117 .4 16.5 1.8 26.8 7.8 55.5 4.2 19.9 4.5 27.7 1.4 40.2-1.3 5.4-2.1 12.3-2.2 17.8-.1 7.9.2 9.4 2.2 12.2 2.4 3.4 8.1 5.7 11.1 4.5 2.5-1 .8-9.2-1.9-9.2-2.3 0-3.4-4.4-2.5-10.3 1.4-9.4 3.9-19.7 4.7-19.7.4 0 .8.6.8 1.3 0 .7 1.6 4.5 3.5 8.5 3.3 6.9 3.3 7.3 2 10.7-.8 1.9-1.5 3.6-1.5 3.9 0 1.1 6.9 4.6 8.2 4.1 1.5-.6 8.6 10.1 7.4 11.2-.4.4-3.8.9-7.6 1.1-7.3.4-8 1-8 7.1 0 2.3 0 2.3 8.8 1.8 4.8-.4 9.8-.8 11.1-.9 2.2-.3 3 .7 6.8 8.2 4.9 9.8 7.9 21.6 8.9 34.7l.7 9.3H88v-6.3c0-13.7-3.7-29.2-9.9-41.5L75 400h5c4.9 0 5.2-.2 6.6-3.5.7-1.9 1.4-5.5 1.4-8.1v-4.6l-3.7.7c-4.9.9-5.3 1.2-5.3 4 0 1.8-.4 2.3-1.6 1.8-1.1-.4-1.4-1.3-.9-2.7.3-1.1 1.2-5.2 1.9-9l1.2-6.9 3.9 4.7c5.3 6.4 18 15.8 27.8 20.5 26.3 12.5 68.2 20.2 117.7 21.8 61.1 1.8 108.2-11.9 139.6-40.8 10.4-9.5 21-23.2 26.8-34.8 2.4-4.7 2.9-5.2 4.2-3.9 1.3 1.3 1.1 2.4-1.7 9.3-9.5 23.8-11.1 46.7-4.3 61.1 2.4 5.1 9.4 12.4 11.9 12.4.6 0 1.9-1.6 2.8-3.5l1.7-3.6-3.9-3.7c-2.7-2.5-4.4-5.4-5.5-9.1-2-6.9-2.1-21.2-.1-30.6 1.8-8.7 7.4-24.5 8.7-24.5.5 0 3.1 1.4 5.8 3.2 4.6 3 4.8 3.3 6.4 10.7.9 4.2 2.9 16.2 4.5 26.7 3.3 20.8 5 29.2 8.3 39.7 1.7 5.4 2.4 6.7 3.7 6.1.9-.3 2.9-1.1 4.4-1.6 2-.8 2.6-1.5 2.2-2.7-2.4-6.1-5.7-19.9-7.5-31.2-1.2-7.4-2.9-18.3-3.9-24.3l-1.7-10.8 4.6 4.9c3.8 3.9 4.8 5.8 5.4 9.8 1.4 9.1 7.1 22.6 12.6 29.5l1.9 2.5 3.2-3.1 3.1-3.2-4.1-6.8c-4.5-7.5-5-9.4-2.3-9.4 1 0 2.3-.5 3-1.2.8-.8 2.7.6 7.6 5.8l6.5 6.9 3.1-3.1 3.2-3.2-9.1-10.3c-5.1-5.7-12.3-15-16-20.5-5.9-8.7-7-11.1-8-17-1.9-10.9-4-18.3-7.3-25.4l-3.1-6.5.7-13.2c.3-7.3 2-24.8 3.8-39 2.6-21.4 3.2-29.5 3.2-47.3.1-22.2-.5-27-4.6-40-6.3-19.7-20.2-37.8-39.4-51.3-7.3-5.1-8.7-6.6-13.5-14.7-10.8-18.5-16.8-23-44.9-33.8-8.5-3.3-21.3-8.9-28.5-12.5-14.1-7.1-30.2-13-42.1-15.3-11.4-2.1-24.6-1.6-43.4 1.7zm48.3 8.9c4.8 1.2 8.6 2.5 8.4 2.7-.3.2-5.6-.4-11.8-1.3-16.6-2.4-31.8-1.5-47.4 2.7-6.6 1.8-15 3.5-18.7 3.7-5 .3-6.8.7-6.8 1.8 0 .9-1.1 1.4-3 1.4-4.2 0-3.9-2.7.5-4.6 2-.8 9.3-2.3 16.3-3.4s17.4-2.9 23.2-4c13.3-2.5 27-2.1 39.3 1zm-2.8 10.9c13.5 2.1 28.1 5.8 35 9.1 2.2 1.1 3.1 1.7 1.9 1.5-9.6-2.4-17.6-3.5-27.4-4-6.3-.4-16.2-1.7-22-3-5.8-1.3-13-2.8-16-3.2l-5.5-.7 4-.7c7.7-1.2 17.1-.9 30 1zm-108 7.1c-1.1.4-6.8 2.7-12.7 5-21.1 8.2-48.8 23.6-70.3 39.1-6.6 4.7-12.1 8.3-12.3 7.8-.2-.4 1.5-4.7 3.7-9.4 14.8-31.5 36.5-43.1 81.6-43.3 7.4 0 11.2.3 10 .8zm43.5 2.5c0 .8-1.2 1.7-2.7 2.1-18.4 3.9-33.6 9-46.8 15.7-6.8 3.4-17.3 6.9-17.9 5.9-.2-.4-.6-1.9-1-3.3-.6-2.6-.2-2.8 11.7-7.7 20.9-8.5 34.5-12.3 43.8-12.1 3 0 6.5-.4 7.9-.9 3.6-1.5 5-1.4 5 .3zM355.5 89c7.4 3.6 12.6 7.8 16.6 13.6l3.1 4.5-9.9-4.9c-8.5-4.3-26.9-17.2-28.8-20.1-.7-1.2 10.7 2.9 19 6.9zm-108.1-2.8c4.9.9 5.7 1.4 5.3 3-.4 1.5.4 2.2 3.6 3.5l4.1 1.7-3.1.8-3.2.8 1.4 4.5c.7 2.5 1.1 4.5.9 4.5-.2 0-2.2-2.5-4.5-5.5-4.4-5.8-4.5-5.8-9.6-1.8l-2.3 1.8 5.3 6.6c2.8 3.6 11.4 13.7 19 22.5 25.9 30.1 30 36.6 43.7 70.3 8.6 21.2 14.2 33.1 18.2 38.4 1.2 1.6 1.5 1.6 4.8-1.2l3.5-2.9-1.8-2.9c-4.2-6.7-9.2-17.5-15.7-34-3.9-9.8-9.1-21.8-11.5-26.7-2.6-5.2-3.8-8.3-2.8-7.4 7.7 6.4 21.9 19.1 32.3 28.9 6.9 6.5 15.4 14.1 18.9 16.9l6.3 5 1.9-2.2 2-2.3-.7 4.5c-.8 6.1-3.8 14.3-6.3 17.9-1.2 1.6-2.1 3.3-2.1 3.8 0 1 5.4 5.3 6.7 5.3 1.2 0 5.6-7.6 7.8-13.3 1-2.6 1.9-4.7 2.1-4.7.1 0 1.5 3.9 3 8.7 2.6 8.4 2.7 9 2 25.7-1.2 29.8 1.9 48.4 11 65.4l4.4 8.4-3.6 7.1c-13.4 26.8-36.3 47-66.9 59.1-11 4.3-29.8 8.9-46 11.3-16.5 2.3-57.1 2.3-78-.1-70.5-8-101-21.4-116-50.7l-3.4-6.7-.2-57.3c-.2-58.2.1-66.5 3.7-83.8 2.6-12.8 7.2-25.6 11.4-31.8 7.4-11 38.2-45.3 45.3-50.5 2.6-1.8 2.2-.8-3.7 10.8-3.7 7.1-8 15.4-9.6 18.4-1.7 3-3.9 8.6-5.1 12.5-6.7 22.6-8.1 26.5-10.8 30.2l-2.9 4.1 3.3 3.2 3.3 3.2 2.5-3.4c4.8-6.4 7.3-12.5 11.3-27.8 2.6-9.7 3.7-12.2 16.4-36.5 10.6-20.3 14.3-25.3 18.5-24.3.9.2-2.3 5.4-9 14.8-14.7 20.4-17.7 26.7-23.4 49.6-1.7 6.7-4.3 15.8-5.9 20.1l-2.8 8 3.9 2.1 3.8 2.1 2.4-5.2c1.3-2.9 4.4-12.9 6.9-22.2 7-26.7 8.7-30.2 23.3-50.2 4.7-6.5 11.1-15.4 14.1-19.8l5.4-8-.7 5.5c-1.1 9.2-5.2 24.3-13 48-4.1 12.4-8.3 26.3-9.4 31-3.4 14.6-5.2 33.9-3.3 36.6.4.6 2.5.9 4.8.6l4.1-.4.6-13.1c.7-15.8 2.3-22.5 11.9-51.7 3.9-11.8 8.4-26.2 9.9-32 2-7.7 2.9-10 3.4-8.5.4 1.1 1.8 4.7 3.1 8 3.2 8.1 12.8 36.5 17 49.7 4.3 13.9 6 22.6 7.3 37.3 1.7 18.8 1.7 18.5 5.4 18.5 5.8 0 5.8-.1 4.1-17.1-1.7-17.5-3.3-25.8-7.4-39.7-1.6-5.3-2.8-9.8-2.6-9.9.1-.2 4.6 4.8 9.9 11 5.2 6.1 14.8 17 21.2 24.2 6.4 7.1 13.1 14.9 14.8 17.2 1.7 2.4 3.5 4.3 4.1 4.3.6 0 2.3 3.4 3.7 7.6 2.3 6.7 2.4 7.6 1 8-7.8 2.3-13.1 7.5-13.1 12.8 0 2.5.2 2.6 4.1 2 2.3-.4 5.1-1.7 6.3-2.9 3.1-3 10.6-4.5 23.1-4.5 8.1 0 11.7.5 15.7 2 2.9 1.1 5.6 2 6 2 1.2 0 3.9-7.3 3.1-8.1-.5-.3-3.5-1.7-6.8-2.9-4.8-1.9-8.1-2.4-16.8-2.4l-10.7-.1-2.1-5.5c-2.6-7-7.2-24-6.6-24.6.2-.3 3.7 3.6 7.7 8.6l7.3 9.1 2.5-2.3c1.5-1.3 3.9-3.5 5.5-5.1 1.6-1.5 3.3-2.7 3.8-2.7s-.2-2.3-1.6-5c-1.4-2.8-4.5-12.3-7-21.1-2.4-8.8-5.7-18.9-7.4-22.5-5.2-11.2-20.8-32.3-42.1-56.9-10.4-12.1-22-26.2-22-26.9 0-1.6 20.8-2 28.4-.4zm67.6 3.1c13.6 4.7 32.9 13.7 37.9 17.7 12 9.5 18.4 18.6 21.1 29.8.7 2.9 1.1 5.5.9 5.7-.2.2-3.5-3.3-7.3-7.6C356 121.6 337.8 107 322 98.3c-7.6-4.2-21-12.5-21-13 0-.6 5.2.9 14 4zm-103.7 3.6l5.1 4.9-4.1.7-4.1.6 1.4 6.1c.8 3.4 2.3 8.1 3.4 10.6 1.1 2.4 2 4.9 2 5.4 0 3.3 9.3 19.6 24.4 42.7 16.7 25.4 17.6 27.1 20 36.1l2.5 9.5-3.2-3.5c-51.9-57-59.7-69.8-61.4-100.3l-.6-10.8-4.6.3c-4.5.3-4.6.4-4.9 3.8-.3 3.5-.3 3.5-5 3.4-2.6-.1-5.6-.5-6.7-.9-1.5-.5-2.4.1-3.9 2.5-1.9 3.4-3.1 3.1-4.1-1.1-.6-2.4-.2-2.7 7.4-5.7 4.4-1.8 12.2-4.4 17.3-5.8 5.1-1.4 9.8-2.7 10.3-2.9 2.6-.9 4-.2 8.8 4.4zm72.4 12.7c4.3 2.4 10.2 7 16.3 12.9 5.2 5.1 16.5 15.3 25 22.7 22.1 19.2 30.8 29.8 35.6 43.6 1.3 3.9 2.7 9.9 3.1 13.4.6 6.1.6 6.3-1.3 4.8-4.9-3.8-9.9-8.2-21.9-19.5-7.1-6.7-17.3-15.9-22.5-20.4-14.9-13-33.6-31.8-40.2-40.6-5.7-7.4-13.8-22.3-13.8-25.1 0-1.4 8.1 2 19.7 8.2zm22.1-5.2c2.6 1.3 7.2 4.5 10.2 7.1 6 5.1 15.9 15.5 16 16.8 0 1.2-7.3-4.3-13.4-10-2.8-2.7-7.8-7.1-11.1-9.8-3.3-2.7-6.4-5.3-6.9-5.7-1.9-1.5.5-.8 5.2 1.6zm-194 11.8c-2.5 2.9-5.2 6.5-6.2 7.9-.9 1.4-5.3 5.7-9.9 9.5-4.5 3.8-14.5 12.5-22.1 19.3-10.3 9.2-13.7 11.8-13.3 10 .3-1.3 1.1-5.2 1.8-8.6 1.1-6 1.4-6.5 7.8-11.6 11.1-9 21-16.2 33.5-24.1 6.5-4.2 12.1-7.6 12.4-7.6.2 0-1.6 2.4-4 5.2zm121.3 6.4c20.6 24.2 26.4 31.6 34.4 43.4 7 10.5 10.1 17.7 13.9 32.7 1.4 5.4 3.2 11.8 4 14.3l1.6 4.5-2.6-3c-4.2-4.9-20.4-26.4-20.4-27 0-2.2-9.5-18.9-16.8-29.4-22.3-32.4-24.2-35.8-24.2-42.7 0-2.6.2-4.5.4-4.3.2.2 4.6 5.4 9.7 11.5zm148.1 2.4c3.9 2.3 12.7 17.2 15.9 26.7 3.2 9.6 4.8 20.6 4.9 32.3v10.5l-3.5-8c-1.9-4.3-5.5-11.3-7.9-15.5-4.1-7.1-4.5-8.4-5.5-18.7-1.2-11.6-3.1-19.3-6.2-25.6-2.2-4.3-2.1-4.4 2.3-1.7zm-23.4 17.2c12.6 13.1 19.5 23.2 19 27.8-.3 2.9-.6 2.7-9.6-7.6-5.2-5.8-11-13.5-12.9-17.2-1.9-3.7-4.3-7.8-5.3-9.2-4.9-7.1-2.1-5.2 8.8 6.2zm53 5.8c6.2 6.5 11.4 14.2 15.2 22.4 10.1 21.6 11.1 42.8 4.6 95.6-1.4 10.7-2.8 23.7-3.2 28.8-.9 13-2.9 10.9-3.7-4-.7-13.6-2.5-23.5-7.1-38.8-3-10.3-6.8-29.3-6.9-34.5 0-1.1.5-8.5 1.1-16.5 1.7-21.3-.3-39.6-5.8-54.1-1.1-3-2-5.6-2-5.8 0-.7 4.3 3.1 7.8 6.9zM85.4 159.1c-2.5 6.3-5.9 14-7.5 17.2-1.6 3.1-3.9 8.1-5 11-1.1 2.8-4 9.1-6.4 13.8-6 11.8-11.7 26.3-15.4 39.4-1.7 6-4 14.1-5.1 18l-2 7 .5-8c.7-10.5 4.8-38.3 8.9-60.5l3.2-17.8 4.5-5.3c4.3-5.2 28-27.1 28.7-26.5.1.2-1.8 5.5-4.4 11.7zm-36 7.9c-1.1 5.9-2.4 9.7-4.6 12.8-1.7 2.5-5.3 8.4-8 13.1-2.7 4.7-4.7 7.7-4.4 6.6 1.9-7.5 4.2-14.7 6.7-20.9 3.1-7.4 10.8-21.1 11.5-20.3.2.2-.3 4.1-1.2 8.7zM390 186.4c0 .5-.9-.3-2-1.7s-2-3.3-2-4.4c.1-1.2.7-.7 2 1.7 1.1 1.9 1.9 3.9 2 4.4zm-13.1 14l-.1 5.1-1.9-6c-2.4-7.6-2.4-8.2.1-6 1.5 1.4 2 3 1.9 6.9zM40.5 217c-3.1 19.4-5.4 37.5-6.2 48.8-.3 5.1-.9 8.9-1.3 8.5-1.3-1.4-3.1-11.4-3.7-21-.6-10 .7-21.2 3.7-29.7 2-6 9.2-21.8 9.6-21.3.2.1-.8 6.8-2.1 14.7zm355.1 6.2l2.4 4.8-2 12.7c-1.2 7-2.2 12.9-2.4 13.1-.2.1-1.8-3.1-3.5-7.2-3-7.2-3.1-8-3.1-22.3v-14.8l3.1 4.5c1.6 2.5 4.1 6.6 5.5 9.2zm9.4 37.5c-.1 12.7-.2 13.6-1.6 11.8-1.3-1.6-1.5-3.6-1-10 .7-8.6 1.6-15.5 2.2-15.5.2 0 .4 6.2.4 13.7zm-344.5 49l.8 7.3-3.8 5.5c-2.1 3-4 5.5-4.1 5.5-.2 0-.8-1.9-1.4-4.1-.9-3.1-.9-4.4 0-4.9.8-.5.8-1.4 0-3.5-3.9-10.4-2.9-29.2 2.7-52l3.8-15 .6 27c.3 14.8.9 30.3 1.4 34.2zm332.8-29.9c.3 3.7 2 11.1 3.7 16.5l3.1 9.7-1.7 6.1c-2 7.2-2.8 6.8-6.7-3.1-3.8-9.7-5.7-21.6-5.7-35.4l.1-12.1 3.3 5.8c2.5 4.4 3.5 7.4 3.9 12.5zm21.6 5.5c.1.5-.3.5-.9.2-.5-.3-1-1.6-.9-2.8 0-2.1.1-2.1.9-.2.5 1.1.9 2.4.9 2.8zm-1.4 19.8c-.7 4.8-.9 5.1-2.1 3.4-1.5-2-1.8-5.5-.7-9.3.5-2.1.7-2.2 2-.9 1.2 1.1 1.3 2.7.8 6.8zM32.9 303c0 1-.3.8-.9-.5-1.2-2.7-1.2-4.3 0-2.5.5.8.9 2.2.9 3zm394.5 15.5c2.7 13.7 4 18.8 7.1 26.4 1.9 4.9 3.5 9.4 3.5 10 0 2-10.8-8-11.5-10.6-.3-1.3-2.4-6.6-4.5-11.6l-4-9.2 1.6-5c.8-2.8 1.8-5.7 2.1-6.5.3-1.1 1-.8 2.9 1.5 1.3 1.6 2.6 3.9 2.8 5zm-20.1 3.6c.6 2.4-1.1 7.9-2.4 7.9-1.7 0-2.1-2.9-.9-6.5 1.3-4 2.5-4.5 3.3-1.4zM65.9 340.3c1.3 5 2.8 13.6 3.3 19 1 9.7.4 22.7-1.1 22.7-1.4 0-7.2-13.2-9.2-20.8-2.7-10.8-2.5-18.6.7-25 1.4-2.9 2.9-5.2 3.2-5.2.4 0 1.8 4.2 3.1 9.3zm-19.5 2.6c.4 3.7.3 4.7-.3 3.1-.4-1.4-1.1-5.3-1.4-8.5-.5-4.3-.4-5.2.3-3.1.5 1.5 1.1 5.3 1.4 8.5z"/><path d="M95.6 238.3c-2.1 1.2-4.5 3.2-5.3 4.4-1.4 2.1-1.3 2.3 2.3 3.8 3.5 1.4 4.1 1.4 7.3-.1 6.4-3.1 24.1.4 41.5 8.1l5.6 2.5 1.5-3c.8-1.6 1.5-3.6 1.5-4.4 0-1.9-14.8-8-26.9-11.2-12.3-3.2-22.1-3.2-27.5-.1zM120 261.1v3.2l-5-.7c-2.8-.4-5.6-.9-6.4-1.2-.9-.3-1.7.8-2.4 3.7-.6 2.4-.9 4.6-.7 5 .3.3 2.8.9 5.7 1.3 9.3 1.3 8.8-.2 8.8 23.6v21h9v-59h-4.5c-4.4 0-4.5.1-4.5 3.1zM291 290.5V317h9v-34.9l5.7-2.8c3.2-1.6 5.9-3.5 6-4.3.4-2.1-6-6.1-7.8-4.9-2.7 1.7-3.9 1-3.9-2.6 0-3.5 0-3.5-4.5-3.5H291v26.5zM195 317.5V338h9v-41h-9v20.5zM167 359.2l-3.1 3.3 3.8 3.3c2.1 1.9 7.4 5.1 11.8 7.2 18.1 8.8 39.3 9.2 61.8 1 6.4-2.4 17.6-7.9 19.6-9.6.4-.4-3.9-7.4-4.5-7.4-.3 0-4.6 2-9.7 4.5-26 12.6-54.8 11.6-72.9-2.7l-3.7-2.9-3.1 3.3z"/></svg>